<?xml version="1.0" encoding="UTF-8" standalone="no"?>
<svg
   width="499.66101"
   height="499.66098"
   viewBox="0 0 499.66101 499.66098"
   version="1.1"
   id="svg5"
   xmlns="http://www.w3.org/2000/svg"
   xmlns:svg="http://www.w3.org/2000/svg">
  <defs
     id="defs5" />
  <g
     id="g6"
     transform="translate(1326.7098,72.141624)">
    <rect
       style="fill:#000000;fill-opacity:1;stroke:none;stroke-width:0.339021;stroke-opacity:0"
       id="rect5"
       width="499.66098"
       height="499.66098"
       x="-1326.7098"
       y="-72.141624"
       ry="56.038345" />
    <g
       id="g5"
       transform="translate(-1587.544,-334.23191)"
       style="fill:#ffffff;fill-opacity:1;stroke:none">
      <path
         d="m 511.483,458.569 c 2.98,-16.509 5.694,-28.566 14.119,-43.506 19.621,-34.792 50.081,-48.493 88.297,-52.075 4.55,40.866 -9.946,83.847 -46.334,105.866 -14.903,9.017 -28.038,11.674 -44.781,14.233 l 0.077,86.922 c 17.334,-15.309 34.197,-31.295 51.532,-46.623 6.376,-5.637 12.781,-11.442 18.887,-17.365 9.137,9.407 17.845,18.936 27.116,28.34 -27.18,24.062 -54.184,48.322 -81.01,72.778 18.346,15.757 35.837,33.075 54.127,48.972 8.871,7.711 17.923,15.75 26.571,23.694 l -6.818,7.278 c -5.028,5.941 -14.431,15.513 -20.029,21.115 -27.306,-24.064 -54.567,-50.153 -81.878,-74.572 -13.71,11.503 -27.29,24.604 -40.676,36.568 -13.874,12.399 -27.905,25.011 -41.517,37.679 -8.948,-9.33 -18.037,-18.476 -26.857,-27.936 5.796,-4.345 17.926,-15.842 23.821,-21.111 19.07,-17.076 38.024,-34.28 56.863,-51.611 -2.827,-2.817 -5.936,-5.508 -8.863,-8.233 -23.493,-21.869 -48.291,-42.691 -71.667,-64.654 7.93,-7.966 19.451,-19.599 26.565,-28.033 6.344,5.376 13.386,12.09 19.682,17.75 l 51.653,46.59 -0.224,-87.422 c -6.291,-1.223 -12.375,-2.002 -18.639,-3.653 -54.823,-14.445 -76.597,-63.271 -72.235,-116.486 41.603,2.198 77.439,24.314 93.5,63.397 4.501,10.951 6.445,20.671 8.718,32.098 z"
         id="path2"
         style="fill:#ffffff;fill-opacity:1;stroke:none" />
      <path
         d="m 646.511,486.607 c 19.291,-0.115 39.843,-2.093 52.182,16.235 7.493,11.131 6.902,22.266 6.861,35.046 l -0.083,22.988 c 0.017,18.385 2.37,27.282 22.218,31.138 0.212,7.509 0.109,16.625 -0.029,24.12 -22.25,3.238 -21.632,16.215 -22.172,33.817 -0.763,24.876 6.157,49.304 -17.463,65.483 -13.819,7.402 -26.177,5.971 -41.514,5.953 l 0.003,-34.051 c 21.433,-0.027 21.895,-0.594 21.9,-23.159 10e-4,-9.442 -0.619,-22.744 0.2,-31.932 0.397,-4.878 1.505,-9.672 3.289,-14.23 2.37,-5.995 4.55,-8.85 8.83,-13.497 -12.511,-13.493 -12.503,-25.648 -12.427,-42.919 l 0.12,-24.287 c -0.031,-18.277 -5.865,-16.479 -21.917,-16.309 z"
         id="path3"
         style="fill:#ffffff;fill-opacity:1;stroke:none" />
      <path
         d="m 355.688,486.707 c 5.797,-0.267 12.956,-0.12 18.86,-0.161 l 0.033,34.424 c -2.707,-0.014 -5.415,-0.005 -8.122,0.026 -3.583,0.064 -8.341,0.313 -10.945,3.112 -9.398,10.107 7.891,56.494 -14.923,80.163 22.771,23.793 5.365,70.617 15.542,80.309 4.012,3.82 13.171,2.744 18.393,2.759 0.132,11.262 0.002,22.801 -0.002,34.083 -8.839,0.007 -18.86,0.327 -27.474,-0.978 -6.797,-1.18 -13.543,-4.152 -18.735,-8.733 -24.858,-21.925 -3.532,-68.699 -17.072,-86.733 -4.304,-5.734 -10.925,-7.706 -17.686,-8.688 l -0.038,-24.4 c 6.775,-0.924 13.426,-2.883 17.727,-8.613 13.001,-17.319 -5.658,-61.627 14.269,-84.023 7.975,-8.963 18.592,-11.881 30.173,-12.547 z"
         id="path4"
         style="fill:#ffffff;fill-opacity:1;stroke:none" />
      <path
         d="m 511.33,302.332 c 2.547,2.166 7.609,8.031 9.91,10.654 14.638,16.684 26.621,37.86 29.51,60.191 -19.772,13.702 -29.314,26.358 -39.198,47.761 -12.01,-23.63 -18.346,-31.828 -39.729,-47.993 5.717,-29.567 18.939,-49.354 39.507,-70.613 z"
         id="path5"
         style="fill:#ffffff;fill-opacity:1;stroke:none" />
    </g>
  </g>
</svg>
