<?xml version="1.0" encoding="UTF-8" standalone="no"?>
<svg
   width="1039.1169"
   height="1401.7109"
   viewBox="0 0 1039.1169 1401.7109"
   version="1.1"
   id="svg16"
   xmlns="http://www.w3.org/2000/svg"
   xmlns:svg="http://www.w3.org/2000/svg">
  <defs
     id="defs16" />
  <g
     id="g26-6"
     transform="matrix(4.87617,0,0,4.87617,-2564.9035,-574.29035)">
    <path
       d="m 620.63477,271.90625 c -22.127,23.604 -37.41075,53.16069 -36.34375,86.17969 0.522,13.445 3.00318,26.74079 7.36718,39.46679 l 2.84961,7.6836 h 19.73047 l 0.0312,-105.4961 c 0.067,-6.611 0.97575,-10.77265 2.96875,-17.09765 0.603,-1.913 3.67949,-9.59533 3.39649,-10.73633 z"
       id="path26-7" />
    <path
       d="m 620.63477,271.90625 c 0.283,1.141 -2.79349,8.82333 -3.39649,10.73633 -1.993,6.325 -2.90175,10.48665 -2.96875,17.09765 l -0.0312,105.4961 h -19.73047 l -2.84961,-7.6836 c -4.364,-12.726 -6.84518,-26.02179 -7.36718,-39.46679 -1.067,-33.019 14.21675,-62.57569 36.34375,-86.17969 z"
       id="path25-5" />
    <path
       d="m 572.81445,126.94336 c 9.972,11.865 14.22008,20.21275 15.83008,35.84375 3.329,-3.234 6.96411,-6.65256 10.16211,-9.97656 22.681,-24.166 -8.13919,-26.19819 -25.99219,-25.86719 z"
       id="path24-3" />
    <path
       d="m 543.41211,117.80859 c -1.74294,-0.0671 -3.5405,-0.0347 -5.39063,0.10352 -4.944,0.837 -7.22767,1.40397 -12.01367,2.91797 13.607,19.715 16.59897,37.44919 12.29297,60.99219 -2.062,11.277 -5.31622,22.3644 -7.07422,33.6914 -3.862,24.871 0.18083,52.53888 14.79883,73.54688 4.262,6.124 10.47967,11.51309 13.26367,18.49609 4.41,11.062 12.17096,82.71983 13.25196,97.67383 l 19.14648,0.002 c -9.541,-25.224 -15.69233,-39.24842 -10.23633,-66.60742 1.941,-9.774 5.00024,-19.29219 9.11524,-28.36719 14.129,-31.246 44.99645,-70.02898 84.06445,-55.58398 7.186,2.657 14.40327,11.53083 16.44726,18.67383 6.15801,21.519 4.06311,48.02507 4.03711,70.33007 l -0.0781,61.52735 43.89648,-0.0137 -0.11718,-74.33985 c 0.003,-41.49 6.12,-88.99362 -37.75,-110.89062 -9.849,-4.203 -18.581,-6.2718 -29.375,-6.2168 -61.211,0.311 -93.75421,75.57958 -96.53321,127.64258 -4.434,-37.807 0.72547,-65.4607 25.10547,-96.0957 21.967,-27.603 47.60377,-39.72322 43.38477,-79.82422 -1.779,-16.912 -11.19389,-35.23091 -22.96289,-47.37891 -2.645,21.13 -15.31114,34.03675 -29.61914,48.71875 -37.388,38.365 -49.16691,68.92469 -36.37891,121.05469 -9.841,-16.333 -12.08236,-42.17394 -7.31836,-60.46094 6.363,-24.422 20.7785,-43.20286 38.4375,-60.50586 -2.16,-24.67406 -16.25039,-48.07862 -42.39453,-49.08594 z m 77.33594,45.08985 c 1.524,14.582 -33.55252,55.22223 -40.85352,69.86523 -7.654,15.35 -8.18317,19.77753 -11.95117,36.14453 -3.523,-28.051 16.55237,-53.13472 33.35937,-73.01172 9.133,-10.801 14.37032,-19.89704 19.44532,-32.99804 z"
       id="path23-5" />
  </g>
</svg>
